# xmcd
#
# Track frame offsets:
#	150
#	16264
#	30664
#	44174
#	56103
#	71882
#	85721
#	100194
#	114401
#	127460
#	146798
#	163821
#
# Disc length: 2415 seconds
#
# Revision: 2
# Processed by: cddbd v1.5.2PL0 Copyright (c) Steve Scherf et al.
# Submitted via: audiograbber 1.83.01
#
DISCID=b4096d0c
DTITLE=Various Artist - Die aktuelle Schlagertruhe [CD1)
DYEAR=2010
DGENRE=Schlager
TTITLE0=Juergen Drews ( LC 18344) - Ein Bett im Kornfeld ( Let Your Love Flow )
TTITLE1=Roland Kaiser ( LC 18344) - Sieben Faesser Wein ( Neuaufnahme 2010)
TTITLE2=Juergen Marcus ( LC 18344) - Ein Lied zieht hinaus in die Welt ( Neuauf
TTITLE2=nahme 2009)
TTITLE3=Florian Silbereisen ( LC 18344 ) - Ballermann ist Out
TTITLE4=Antonia aus Tirol (LC 18344 ) - Traenen luegen nicht
TTITLE5=Tony Marshall ( LC 18344 ) - 1000 mal an Dich gedacht
TTITLE6=Tommy Steiner ( LC 18344) - Spiel mit mir Liebe
TTITLE7=Lena Valaitis ( LC 18344 ) - Ich hab Dir nie den Himmel versprochen
TTITLE8=Truck Stop ( LC 18344) - Take It Easy altes Haus
TTITLE9=Roland Kaiser ( LC 18344 ) - Das Fenster zum Hof (2010)
TTITLE10=Stefanie Hertel and Stefan Mross ( LC 18344 ) - Fernando ( ... und der H
TTITLE10=immel war zum Greifen nah )
TTITLE11=Joerg Bausch ( LC 18344 ) - Wie ein Blitz ( DJ Mix )
EXTD=
EXTT0=
EXTT1=
EXTT2=
EXTT3=
EXTT4=
EXTT5=
EXTT6=
EXTT7=
EXTT8=
EXTT9=
EXTT10=
EXTT11=
PLAYORDER=
